<?xml version="1.0" encoding="UTF-8" standalone="no" ?>
<!DOCTYPE svg PUBLIC "-//W3C//DTD SVG 1.1//EN" "http://www.w3.org/Graphics/SVG/1.1/DTD/svg11.dtd">
<svg xmlns="http://www.w3.org/2000/svg" xmlns:xlink="http://www.w3.org/1999/xlink" version="1.1" width="16" height="16" viewBox="0 0 16 16" xml:space="preserve">
<desc>Created with Fabric.js 5.3.0</desc>
<defs>
</defs>
<g transform="matrix(1.3331929923 0 0 1.3331929923 8 8)" id="P9CTsPVfu_b368TjUnZqS"  >
<path style="stroke: none; stroke-width: 0; stroke-dasharray: none; stroke-linecap: butt; stroke-dashoffset: 0; stroke-linejoin: miter; stroke-miterlimit: 4; fill: rgb(255,255,255); fill-rule: nonzero; opacity: 1;"  transform=" translate(0, 0)" d="M -5.854 -5.146 C -6.04951 -5.3415099999999995 -6.04951 -5.65849 -5.854 -5.854 C -5.6584900000000005 -6.04951 -5.34151 -6.04951 -5.146 -5.854 L 0 -0.7069999999999999 L 5.146 -5.854 C 5.3415099999999995 -6.04951 5.65849 -6.04951 5.854 -5.854 C 6.04951 -5.6584900000000005 6.04951 -5.34151 5.854 -5.146 L 0.7069999999999999 0 L 5.854 5.146 C 6.04951 5.3415099999999995 6.04951 5.65849 5.854 5.854 C 5.6584900000000005 6.04951 5.34151 6.04951 5.146 5.854 L 0 0.7069999999999999 L -5.146 5.854 C -5.3415099999999995 6.04951 -5.65849 6.04951 -5.854 5.854 C -6.04951 5.6584900000000005 -6.04951 5.34151 -5.854 5.146 L -0.7069999999999999 0 z" stroke-linecap="round" />
</g>
</svg>